<svg width="26" height="37" viewBox="0 0 26 37" fill="none" xmlns="http://www.w3.org/2000/svg">
<path d="M0.366197 10.7917C0.366197 10.3659 0.694101 10.0208 1.09859 10.0208H7.14084C7.54534 10.0208 7.87324 10.3659 7.87324 10.7917V17.151C7.87324 17.5768 7.54534 17.9219 7.14084 17.9219H1.09859C0.694101 17.9219 0.366197 17.5768 0.366197 17.151V10.7917Z" fill="black"/>
<path d="M9.52113 10.7917C9.52113 10.3659 9.84903 10.0208 10.2535 10.0208H16.2958C16.7003 10.0208 17.0282 10.3659 17.0282 10.7917V17.151C17.0282 17.5768 16.7003 17.9219 16.2958 17.9219H10.2535C9.84903 17.9219 9.52113 17.5768 9.52113 17.151V10.7917Z" fill="black"/>
<path d="M9.52113 1.15625C9.52113 0.730531 9.84903 0.385417 10.2535 0.385417H16.2958C16.7003 0.385417 17.0282 0.730531 17.0282 1.15625V7.51562C17.0282 7.94134 16.7003 8.28646 16.2958 8.28646H10.2535C9.84903 8.28646 9.52113 7.94134 9.52113 7.51562V1.15625Z" fill="black"/>
<path d="M0 3.95052C0 1.76871 1.68051 0 3.75352 0H4.48592C6.55893 0 8.23944 1.76871 8.23944 3.95052V4.72135C8.23944 6.90317 6.55893 8.67188 4.48592 8.67188H3.75352C1.68051 8.67188 0 6.90317 0 4.72135V3.95052Z" fill="black"/>
<path d="M18.493 1.15625C18.493 0.730531 18.8209 0.385417 19.2254 0.385417H25.2676C25.6721 0.385417 26 0.730531 26 1.15625V7.51562C26 7.94134 25.6721 8.28646 25.2676 8.28646H19.2254C18.8209 8.28646 18.493 7.94134 18.493 7.51562V1.15625Z" fill="black"/>
<path d="M0.366197 20.4271C0.366197 20.0014 0.694101 19.6562 1.09859 19.6562H7.14084C7.54534 19.6562 7.87324 20.0014 7.87324 20.4271V26.7865C7.87324 27.2122 7.54534 27.5573 7.14084 27.5573H1.09859C0.694101 27.5573 0.366197 27.2122 0.366197 26.7865V20.4271Z" fill="black"/>
<path d="M9.52113 20.4271C9.52113 20.0014 9.84903 19.6562 10.2535 19.6562H16.2958C16.7003 19.6562 17.0282 20.0014 17.0282 20.4271V26.7865C17.0282 27.2122 16.7003 27.5573 16.2958 27.5573H10.2535C9.84903 27.5573 9.52113 27.2122 9.52113 26.7865V20.4271Z" fill="black"/>
<path d="M18.493 20.4271C18.493 20.0014 18.8209 19.6562 19.2254 19.6562H25.2676C25.6721 19.6562 26 20.0014 26 20.4271V26.7865C26 27.2122 25.6721 27.5573 25.2676 27.5573H19.2254C18.8209 27.5573 18.493 27.2122 18.493 26.7865V20.4271Z" fill="black"/>
<path d="M9.52113 29.8698C9.52113 29.4441 9.84903 29.099 10.2535 29.099H16.2958C16.7003 29.099 17.0282 29.4441 17.0282 29.8698V36.2292C17.0282 36.6549 16.7003 37 16.2958 37H10.2535C9.84903 37 9.52113 36.6549 9.52113 36.2292V29.8698Z" fill="black"/>
<path d="M0.366197 29.8698C0.366197 29.4441 0.694101 29.099 1.09859 29.099H7.14084C7.54534 29.099 7.87324 29.4441 7.87324 29.8698V36.2292C7.87324 36.6549 7.54534 37 7.14084 37H1.09859C0.694101 37 0.366197 36.6549 0.366197 36.2292V29.8698Z" fill="black"/>
</svg>
